<svg width="17" height="15" viewBox="0 0 17 15" fill="none" xmlns="http://www.w3.org/2000/svg">
<g clip-path="url(#clip0)">
<path d="M15.731 0.110941C14.989 -0.289059 14.161 0.48194 13.675 0.93894C12.562 2.02394 11.619 3.27994 10.563 4.42194C9.393 5.67894 8.308 6.93394 7.109 8.16294C6.37428 8.82957 5.73972 9.59885 5.225 10.4469C4.26378 9.40015 3.2438 8.40888 2.17 7.47794C1.342 6.84994 -0.0300044 6.39294 -4.41598e-06 7.90594C0.0569956 9.87594 1.8 11.9889 3.083 13.3309C3.59942 13.9818 4.34482 14.411 5.167 14.5309C6.167 14.5879 7.194 13.3889 7.794 12.7309C8.85 11.5889 9.707 10.3039 10.678 9.13094C11.934 7.58894 13.219 6.07594 14.447 4.50594C15.217 3.53394 17.644 1.13894 15.731 0.110941ZM1.256 7.79194C1.21604 7.79087 1.17658 7.80091 1.142 7.82094C1.03313 7.7957 0.927699 7.75743 0.827996 7.70694C0.913329 7.64894 1.056 7.67727 1.256 7.79194Z" fill="#404040"/>
</g>
<defs>
<clipPath id="clip0">
<rect width="16.45" height="14.531" fill="white"/>
</clipPath>
</defs>
</svg>
