<svg width="78" height="78" viewBox="0 0 78 78" fill="none" xmlns="http://www.w3.org/2000/svg">
<circle cx="39" cy="39" r="37.5" stroke="#D6CDB2" stroke-width="3"/>
<path d="M42.256 33.64V52.792C42.256 54.3227 42.76 55.256 43.768 55.592C44.104 55.704 44.9253 55.816 46.232 55.928V58H33.184V55.928C34.4533 55.8533 35.2747 55.7413 35.648 55.592C36.656 55.2933 37.16 54.36 37.16 52.792V35.656C37.16 34.76 37.0293 34.1627 36.768 33.864C36.5067 33.528 35.9653 33.36 35.144 33.36C34.5093 33.36 33.688 33.416 32.68 33.528V31.568C35.1813 30.7093 37.4213 30.28 39.4 30.28C40.4453 30.28 41.1733 30.56 41.584 31.12C42.032 31.6427 42.256 32.4827 42.256 33.64ZM36.992 21.712C36.32 21.0773 35.984 20.1813 35.984 19.024C35.984 17.8667 36.32 16.9893 36.992 16.392C37.7013 15.7573 38.56 15.44 39.568 15.44C40.576 15.44 41.416 15.7573 42.088 16.392C42.7973 16.9893 43.152 17.8667 43.152 19.024C43.152 20.1813 42.7973 21.0773 42.088 21.712C41.416 22.3093 40.576 22.608 39.568 22.608C38.56 22.608 37.7013 22.3093 36.992 21.712Z" fill="#D6CDB2"/>
</svg>
