<svg width="50" height="50" viewBox="0 0 50 50" fill="none" xmlns="http://www.w3.org/2000/svg">
<circle cx="25" cy="25" r="25" fill="#2F8AF1"/>
<g clip-path="url(#clip0)">
<path d="M34.8039 30.9199C34.7448 30.8209 34.379 30.026 32.6189 28.3924C30.7762 26.6818 31.0238 26.9596 33.2432 24.0017C34.5949 22.2003 35.1353 21.1003 34.9662 20.63C34.8053 20.1817 33.8111 20.2999 33.8111 20.2999L30.5053 20.3192C30.5053 20.3192 30.2606 20.2862 30.0777 20.3948C29.9003 20.5021 29.7862 20.7496 29.7862 20.7496C29.7862 20.7496 29.2623 22.144 28.5637 23.3293C27.091 25.8306 26.501 25.9626 26.2604 25.8072C25.7007 25.4456 25.841 24.3524 25.841 23.5768C25.841 21.1525 26.2082 20.1418 25.1246 19.8805C24.7643 19.7939 24.5003 19.7362 23.5803 19.7265C22.4005 19.7142 21.4008 19.7307 20.8356 20.0071C20.4589 20.1913 20.1687 20.6025 20.3461 20.6258C20.5647 20.6547 21.0598 20.7592 21.3224 21.1168C21.6621 21.5774 21.6497 22.6142 21.6497 22.6142C21.6497 22.6142 21.845 25.4676 21.1945 25.8224C20.7476 26.0658 20.1357 25.5693 18.8225 23.299C18.1501 22.1371 17.6413 20.8514 17.6413 20.8514C17.6413 20.8514 17.5436 20.6121 17.369 20.4842C17.1572 20.3288 16.8602 20.2793 16.8602 20.2793L13.7167 20.2986C13.7167 20.2986 13.2451 20.3123 13.0718 20.5172C12.9178 20.7001 13.0594 21.0769 13.0594 21.0769C13.0594 21.0769 15.5209 26.8344 18.3068 29.7373C20.8631 32.3981 23.7646 32.2235 23.7646 32.2235H25.0792C25.0792 32.2235 25.4766 32.1795 25.6787 31.9608C25.8658 31.76 25.8589 31.3833 25.8589 31.3833C25.8589 31.3833 25.8328 29.619 26.6523 29.3591C27.4595 29.1034 28.4963 31.0642 29.595 31.8192C30.4256 32.3898 31.0568 32.2647 31.0568 32.2647L33.9954 32.2235C33.9954 32.2235 35.5327 32.1286 34.8039 30.9199Z" fill="white"/>
</g>
<defs>
<clipPath id="clip0">
<rect width="22" height="22" fill="white" transform="translate(13 15)"/>
</clipPath>
</defs>
</svg>
