<svg width="263" height="365" viewBox="0 0 263 365" fill="none" xmlns="http://www.w3.org/2000/svg">
<path opacity="0.1" d="M259 0H4C1.79086 0 0 1.79086 0 4V361C0 363.209 1.79086 365 4 365H259C261.209 365 263 363.209 263 361V4C263 1.79086 261.209 0 259 0Z" fill="#969696"/>
<path opacity="0.15" d="M39 23H21C19.8954 23 19 23.8954 19 25V43C19 44.1046 19.8954 45 21 45H39C40.1046 45 41 44.1046 41 43V25C41 23.8954 40.1046 23 39 23Z" fill="#969696"/>
<path opacity="0.15" d="M89 62H21C19.8954 62 19 62.8954 19 64V78C19 79.1046 19.8954 80 21 80H89C90.1046 80 91 79.1046 91 78V64C91 62.8954 90.1046 62 89 62Z" fill="#969696"/>
<path opacity="0.15" d="M230 175H25C23.8954 175 23 175.895 23 177V190C23 191.105 23.8954 192 25 192H230C231.105 192 232 191.105 232 190V177C232 175.895 231.105 175 230 175Z" fill="#969696"/>
<path opacity="0.15" d="M118 200H25C23.8954 200 23 200.895 23 202V215C23 216.105 23.8954 217 25 217H118C119.105 217 120 216.105 120 215V202C120 200.895 119.105 200 118 200Z" fill="#969696"/>
<path opacity="0.15" d="M36 345C44.8366 345 52 337.837 52 329C52 320.163 44.8366 313 36 313C27.1634 313 20 320.163 20 329C20 337.837 27.1634 345 36 345Z" fill="#969696"/>
<path opacity="0.15" d="M103 316H61C59.8954 316 59 316.895 59 318V326C59 327.105 59.8954 328 61 328H103C104.105 328 105 327.105 105 326V318C105 316.895 104.105 316 103 316Z" fill="#969696"/>
<path opacity="0.15" d="M118 329H61C59.8954 329 59 329.895 59 331V339C59 340.105 59.8954 341 61 341H118C119.105 341 120 340.105 120 339V331C120 329.895 119.105 329 118 329Z" fill="#969696"/>
<path opacity="0.15" d="M241 317H192C190.895 317 190 317.895 190 319V325C190 326.105 190.895 327 192 327H241C242.105 327 243 326.105 243 325V319C243 317.895 242.105 317 241 317Z" fill="#969696"/>
<path opacity="0.15" d="M241 328H182C180.895 328 180 328.895 180 330V336C180 337.105 180.895 338 182 338H241C242.105 338 243 337.105 243 336V330C243 328.895 242.105 328 241 328Z" fill="#969696"/>
</svg>
