<svg width="80" height="84" viewBox="0 0 80 84" fill="none" xmlns="http://www.w3.org/2000/svg">
<g clip-path="url(#clip0)">
<path d="M0.979233 39.6769L36.9976 3.96037L40.4877 0.499512L67.6014 27.386L79.9998 39.6769C80.6191 40.2941 80.9668 41.1294 80.9668 42.0002C80.9668 42.8709 80.6191 43.7062 79.9998 44.3235L55.2291 68.8867L40.4877 83.5008L13.3777 56.6143L12.9555 56.1993L0.979233 44.342C0.668877 44.0365 0.422546 43.6731 0.254456 43.2728C0.0863647 42.8724 -0.000175476 42.4431 -0.000175476 42.0094C-0.000175476 41.5758 0.0863647 41.1464 0.254456 40.7461C0.422546 40.3458 0.668877 39.9824 0.979233 39.6769ZM40.4877 54.2725L52.8637 42.0002L40.4877 29.7278L28.1154 42.0002L40.4877 54.2725Z" fill="#2684FF"/>
<path d="M40.488 29.7279C44.3802 25.8691 46.5744 20.6398 46.5912 15.1821C46.608 9.72438 44.4461 4.48186 40.5776 0.599609L67.6577 27.4416L52.9201 42.0558L40.488 29.7279Z" fill="url(#paint0_linear)"/>
<path d="M28.0819 41.9668L40.4878 54.2725C36.5808 58.1478 34.386 63.4032 34.386 68.8829C34.386 74.3627 36.5808 79.6181 40.4878 83.4934L13.333 56.5809L28.0819 41.9668Z" fill="url(#paint1_linear)"/>
</g>
<defs>
<linearGradient id="paint0_linear" x1="42.7038" y1="17.311" x2="59.8408" y2="34.5891" gradientUnits="userSpaceOnUse">
<stop offset="0.18" stop-color="#0052CC"/>
<stop offset="1" stop-color="#2684FF"/>
</linearGradient>
<linearGradient id="paint1_linear" x1="-3072.81" y1="3603.7" x2="-4828.7" y2="4751.65" gradientUnits="userSpaceOnUse">
<stop offset="0.18" stop-color="#0052CC"/>
<stop offset="1" stop-color="#2684FF"/>
</linearGradient>
<clipPath id="clip0">
<rect width="80" height="84" fill="white" transform="matrix(-1 0 0 1 80 0)"/>
</clipPath>
</defs>
</svg>
