<svg width="50" height="50" viewBox="0 0 50 50" fill="none" xmlns="http://www.w3.org/2000/svg">
<circle cx="25" cy="25" r="25" fill="#03A9F4"/>
<g clip-path="url(#clip0)">
<path d="M35.8793 18.9774C35.7397 18.8247 35.5149 18.7851 35.3315 18.8806C35.1429 18.9663 34.9479 19.0369 34.7481 19.0915C35.0596 18.6928 35.2949 18.24 35.442 17.7557C35.5067 17.5121 35.3617 17.262 35.118 17.1973C34.9879 17.1627 34.8492 17.1873 34.7389 17.2645C34.0448 17.6402 33.307 17.9288 32.5421 18.1237C30.9677 16.6376 28.5693 16.4524 26.7853 17.6791C25.411 18.6083 24.6545 20.2142 24.8131 21.8654C21.8341 21.6116 19.0933 20.1354 17.242 17.7877C17.1469 17.6727 17.003 17.6093 16.8539 17.617C16.7028 17.626 16.566 17.7095 16.4887 17.8397C15.8604 18.8668 15.6784 20.1057 15.9847 21.2701C16.1418 21.8683 16.4111 22.4313 16.7782 22.9291C16.6128 22.8482 16.4572 22.7486 16.3144 22.6324C16.1186 22.4736 15.8311 22.5035 15.6722 22.6993C15.6063 22.7806 15.5703 22.8821 15.5702 22.9867C15.5973 24.6759 16.5249 26.2218 18.0026 27.0407C17.8032 27.0162 17.6064 26.974 17.4146 26.9147C17.1731 26.842 16.9185 26.9789 16.8459 27.2203C16.8142 27.3256 16.8216 27.4389 16.8667 27.5392C17.5081 28.9759 18.7903 30.0252 20.3254 30.3697C18.8628 31.1948 17.1787 31.5416 15.5091 31.3612C15.2926 31.3336 15.0875 31.4652 15.0224 31.6735C14.9553 31.8802 15.0431 32.1055 15.2324 32.2122C17.2767 33.4269 19.6023 34.0877 21.9799 34.1297C24.2608 34.1213 26.4886 33.44 28.3841 32.1711C32.0025 29.7698 34.2578 25.4583 33.9437 21.6007C34.7174 21.028 35.3885 20.3285 35.9287 19.5317C36.0397 19.3571 36.0195 19.1296 35.8793 18.9774Z" fill="white"/>
</g>
<defs>
<clipPath id="clip0">
<rect width="21" height="21" fill="white" transform="translate(15 15)"/>
</clipPath>
</defs>
</svg>
