<svg width="154" height="75" viewBox="0 0 154 75" fill="none" xmlns="http://www.w3.org/2000/svg">
<path d="M0 21.8062V16.2563C0.00259023 15.6252 0.254544 15.0208 0.700935 14.5747C1.14733 14.1286 1.75196 13.8771 2.38301 13.875H37.2923C37.9236 13.8771 38.5285 14.1289 38.975 14.5753C39.4214 15.0218 39.6731 15.6267 39.6753 16.258V21.808H31.744V30.0653H23.8122V21.8062H15.8631V45.6005H23.7943V37.6693H31.7255V45.6005H39.6591V51.1673C39.657 51.7986 39.4052 52.4035 38.9588 52.85C38.5123 53.2964 37.9074 53.5481 37.2761 53.5503H24.1215C24.0166 53.5507 23.9129 53.5718 23.8161 53.6124C23.7194 53.653 23.6317 53.7122 23.5578 53.7867L16.5343 60.8086C16.4572 60.8788 16.3567 60.9177 16.2524 60.9177C16.1482 60.9177 16.0477 60.8788 15.9706 60.8086C15.901 60.7347 15.8619 60.6372 15.8613 60.5357V53.9503C15.8601 53.8446 15.8176 53.7436 15.7428 53.6688C15.6681 53.594 15.567 53.5515 15.4613 53.5503H2.36509C1.73751 53.5414 1.1384 53.2869 0.696266 52.8414C0.254129 52.3959 0.0041715 51.7949 0 51.1673L0 45.6173H7.93124V21.8062H0Z" fill="#8FB100"/>
<path d="M47.2324 40.4682H50.8954L55.0371 33.5376C55.6198 32.5595 56.2858 30.9985 56.2858 30.9985H56.3274C56.3274 30.9985 56.1609 32.6011 56.1609 33.5376V40.4682H59.8031V25.5873H56.1193L51.9985 32.5386C51.4157 33.5168 50.7497 35.0778 50.7497 35.0778H50.7081C50.7081 35.0778 50.8746 33.4752 50.8746 32.5386V25.5873H47.2324V40.4682Z" fill="white"/>
<path d="M62.923 40.4682H66.5651V34.6407H71.9764V40.4682H75.6185V25.5873H71.9764V31.5397H66.5651V25.5873H62.923V40.4682Z" fill="white"/>
<path d="M77.6949 32.5178C77.6949 36.0976 80.3797 38.8448 84.3548 38.8448V40.7179H87.997V38.8448C91.9722 38.8448 94.657 36.0976 94.657 32.5178C94.657 29.0422 91.9722 26.3782 87.997 26.3782V24.8589H84.3548V26.3782C80.3797 26.3782 77.6949 29.0422 77.6949 32.5178ZM87.997 35.8062V29.4168C89.6828 29.4168 90.9524 30.8112 90.9524 32.5178C90.9524 34.3285 89.6828 35.8062 87.997 35.8062ZM81.3995 32.5178C81.3995 30.8112 82.669 29.4168 84.3548 29.4168V35.8062C82.669 35.8062 81.3995 34.3285 81.3995 32.5178Z" fill="white"/>
<path d="M95.9314 32.9341C95.9314 37.3047 99.2197 40.7179 103.715 40.7179C108.211 40.7179 111.499 37.3047 111.499 32.9341C111.499 28.6675 108.211 25.3376 103.715 25.3376C99.2197 25.3376 95.9314 28.6675 95.9314 32.9341ZM99.6984 32.9341C99.6984 30.499 101.488 28.6675 103.715 28.6675C105.942 28.6675 107.732 30.499 107.732 32.9341C107.732 35.4732 105.942 37.3879 103.715 37.3879C101.488 37.3879 99.6984 35.4732 99.6984 32.9341Z" fill="white"/>
<path d="M111.812 40.4682H115.849L117.556 37.3463C118.076 36.4097 118.471 35.494 118.471 35.494H118.513C118.513 35.494 118.909 36.4097 119.429 37.3463L121.135 40.4682H125.194L120.657 33.0798L125.215 25.5873H121.073L119.429 28.6467C118.909 29.6041 118.513 30.5615 118.513 30.5615H118.471C118.471 30.5615 118.055 29.5833 117.556 28.6467L115.932 25.5873H111.791L116.328 33.0798L111.812 40.4682Z" fill="white"/>
<path d="M126.925 40.4682H130.588L134.73 33.5376C135.312 32.5595 135.978 30.9985 135.978 30.9985H136.02C136.02 30.9985 135.854 32.6011 135.854 33.5376V40.4682H139.496V25.5873H135.812L131.691 32.5386C131.108 33.5168 130.442 35.0778 130.442 35.0778H130.401C130.401 35.0778 130.567 33.4752 130.567 32.5386V25.5873H126.925V40.4682Z" fill="white"/>
<path d="M145.842 40.4682H149.484V28.7092H154V25.5873H141.325V28.7092H145.842V40.4682Z" fill="white"/>
</svg>
