<svg width="37" height="43" viewBox="0 0 37 43" fill="none" xmlns="http://www.w3.org/2000/svg">
<path d="M0 7.25V2.178C0.00210776 1.60101 0.232252 1.04825 0.64025 0.64025C1.04825 0.232252 1.60101 0.00210776 2.178 0L34.087 0C34.664 0.00210776 35.2168 0.232252 35.6247 0.64025C36.0327 1.04825 36.2629 1.60101 36.265 2.178V7.25H29.015V14.8H21.765V7.25H14.5V29H21.75V21.75H29V29H36.25V34.088C36.2479 34.665 36.0177 35.2178 35.6097 35.6258C35.2018 36.0337 34.649 36.2639 34.072 36.266H22.049C21.8555 36.2669 21.6703 36.3446 21.534 36.482L15.115 42.9C15.0445 42.964 14.9527 42.9995 14.8575 42.9995C14.7623 42.9995 14.6705 42.964 14.6 42.9C14.5364 42.8326 14.5007 42.7436 14.5 42.651V36.631C14.4992 36.5342 14.4604 36.4415 14.3919 36.3731C14.3235 36.3046 14.2308 36.2658 14.134 36.265H2.162C1.58836 36.2569 1.04073 36.0243 0.636559 35.6172C0.23239 35.21 0.00386694 34.6607 0 34.087L0 29.016H7.25V7.25H0Z" fill="white"/>
</svg>
