<svg width="130" height="13" viewBox="0 0 130 13" fill="none" xmlns="http://www.w3.org/2000/svg">
<path d="M0.2 12H4.952C7.176 12 8.68 10.496 8.68 8.384C8.68 6.272 7.176 4.736 4.952 4.736H3V2.96H7.64V0.559999H0.2V12ZM3 9.6V7.136H4.376C5.352 7.136 5.832 7.664 5.832 8.384C5.832 9.104 5.352 9.6 4.424 9.6H3ZM9.381 9.584V12.128C12.597 12.128 14.325 9.984 14.325 4.352V2.96H16.549V12H19.349V0.559999H11.669V4.32C11.669 8.416 10.741 9.408 9.381 9.584ZM21.1229 6.208C21.1229 9.568 23.6509 12.192 27.1069 12.192C30.5629 12.192 33.0909 9.568 33.0909 6.208C33.0909 2.928 30.5629 0.367999 27.1069 0.367999C23.6509 0.367999 21.1229 2.928 21.1229 6.208ZM24.0189 6.208C24.0189 4.336 25.3949 2.928 27.1069 2.928C28.8189 2.928 30.1949 4.336 30.1949 6.208C30.1949 8.16 28.8189 9.632 27.1069 9.632C25.3949 9.632 24.0189 8.16 24.0189 6.208ZM34.8719 12H37.6719V2.96H41.8799V0.559999H34.8719V12Z" fill="#FED036"/>
<path d="M47.2469 12H50.0629L53.2469 6.672C53.6949 5.92 54.2069 4.72 54.2069 4.72H54.2389C54.2389 4.72 54.1109 5.952 54.1109 6.672V12H56.9109V0.559999H54.0789L50.9109 5.904C50.4629 6.656 49.9509 7.856 49.9509 7.856H49.9189C49.9189 7.856 50.0469 6.624 50.0469 5.904V0.559999H47.2469V12ZM59.3094 12H62.1094V7.52H66.2694V12H69.0694V0.559999H66.2694V5.136H62.1094V0.559999H59.3094V12ZM70.6656 5.888C70.6656 8.64 72.7296 10.752 75.7856 10.752V12.192H78.5856V10.752C81.6416 10.752 83.7056 8.64 83.7056 5.888C83.7056 3.216 81.6416 1.168 78.5856 1.168V-9.53674e-07H75.7856V1.168C72.7296 1.168 70.6656 3.216 70.6656 5.888ZM78.5856 8.416V3.504C79.8816 3.504 80.8576 4.576 80.8576 5.888C80.8576 7.28 79.8816 8.416 78.5856 8.416ZM73.5136 5.888C73.5136 4.576 74.4896 3.504 75.7856 3.504V8.416C74.4896 8.416 73.5136 7.28 73.5136 5.888ZM84.6854 6.208C84.6854 9.568 87.2134 12.192 90.6694 12.192C94.1254 12.192 96.6534 9.568 96.6534 6.208C96.6534 2.928 94.1254 0.367999 90.6694 0.367999C87.2134 0.367999 84.6854 2.928 84.6854 6.208ZM87.5814 6.208C87.5814 4.336 88.9574 2.928 90.6694 2.928C92.3814 2.928 93.7574 4.336 93.7574 6.208C93.7574 8.16 92.3814 9.632 90.6694 9.632C88.9574 9.632 87.5814 8.16 87.5814 6.208ZM96.8936 12H99.9976L101.31 9.6C101.71 8.88 102.014 8.176 102.014 8.176H102.046C102.046 8.176 102.35 8.88 102.75 9.6L104.062 12H107.182L103.694 6.32L107.198 0.559999H104.014L102.75 2.912C102.35 3.648 102.046 4.384 102.046 4.384H102.014C102.014 4.384 101.694 3.632 101.31 2.912L100.062 0.559999H96.8776L100.366 6.32L96.8936 12ZM108.513 12H111.329L114.513 6.672C114.961 5.92 115.473 4.72 115.473 4.72H115.505C115.505 4.72 115.377 5.952 115.377 6.672V12H118.177V0.559999H115.345L112.177 5.904C111.729 6.656 111.217 7.856 111.217 7.856H111.185C111.185 7.856 111.312 6.624 111.312 5.904V0.559999H108.513V12ZM123.055 12H125.855V2.96H129.327V0.559999H119.583V2.96H123.055V12Z" fill="white"/>
</svg>
