<svg width="210" height="29" viewBox="0 0 210 29" fill="none" xmlns="http://www.w3.org/2000/svg">
<path d="M6.312 9.8L6.312 12.104L10.392 12.104C12.344 12.104 13.856 12.584 14.928 13.544C16 14.488 16.536 15.808 16.536 17.504C16.536 19.232 16 20.584 14.928 21.56C13.856 22.52 12.344 23 10.392 23L1.848 23L1.848 5.864L14.928 5.864L14.928 9.8L6.312 9.8ZM6.312 19.184L9.6 19.184C10.448 19.184 11.056 19.04 11.424 18.752C11.792 18.448 11.976 17.992 11.976 17.384C11.976 16.2 11.184 15.608 9.6 15.608L6.312 15.608L6.312 19.184ZM18.2724 23L18.2724 18.68H18.9444C19.6004 18.68 20.0724 18.592 20.3604 18.416C20.6644 18.224 20.8964 17.752 21.0564 17C21.2324 16.248 21.3204 15.072 21.3204 13.472L21.3204 5.864L34.5924 5.864L34.5924 23L30.1284 23L30.1284 9.8L25.4484 9.8L25.4484 13.592C25.4484 15.608 25.3204 17.248 25.0644 18.512C24.8244 19.76 24.4084 20.712 23.8164 21.368C23.2404 22.024 22.5844 22.464 21.8484 22.688C21.1124 22.896 20.1524 23 18.9684 23H18.2724ZM39.8053 8.024C41.3093 6.376 43.4133 5.552 46.1173 5.552C48.8213 5.552 50.9253 6.376 52.4293 8.024C53.9333 9.672 54.6853 11.808 54.6853 14.432C54.6853 17.056 53.9333 19.192 52.4293 20.84C50.9253 22.488 48.8213 23.312 46.1173 23.312C43.4133 23.312 41.3093 22.488 39.8053 20.84C38.3013 19.192 37.5493 17.056 37.5493 14.432C37.5493 11.808 38.3013 9.672 39.8053 8.024ZM43.1413 18.032C43.8293 18.928 44.8213 19.376 46.1173 19.376C47.4133 19.376 48.4053 18.928 49.0933 18.032C49.7813 17.12 50.1253 15.92 50.1253 14.432C50.1253 12.944 49.7813 11.752 49.0933 10.856C48.4053 9.944 47.4133 9.488 46.1173 9.488C44.8213 9.488 43.8293 9.936 43.1413 10.832C42.4533 11.728 42.1093 12.928 42.1093 14.432C42.1093 15.92 42.4533 17.12 43.1413 18.032ZM62.0933 9.8L62.0933 23L57.6293 23L57.6293 5.864L70.4213 5.864V9.8L62.0933 9.8Z" fill="#8FB100"/>
<path d="M79.848 5.864L83.928 5.864L83.928 16.688H84.6L89.664 5.864L95.4 5.864L95.4 23L91.32 23L91.32 12.176L90.648 12.176L85.584 23L79.848 23L79.848 5.864ZM109.914 5.864L114.378 5.864L114.378 23L109.914 23L109.914 16.208L103.554 16.208L103.554 23L99.0902 23L99.0902 5.864L103.554 5.864L103.554 12.2L109.914 12.2L109.914 5.864ZM129.427 7.352L129.595 7.352C131.963 7.352 133.851 7.944 135.259 9.128C136.683 10.312 137.395 12 137.395 14.192C137.395 16.432 136.691 18.136 135.283 19.304C133.875 20.456 131.979 21.032 129.595 21.032H129.427L129.427 23.312L125.203 23.312L125.203 21.032H125.035C122.635 21.032 120.731 20.456 119.323 19.304C117.931 18.136 117.235 16.432 117.235 14.192C117.235 12 117.939 10.312 119.347 9.128C120.771 7.944 122.667 7.352 125.035 7.352H125.203L125.203 5.312L129.427 5.312V7.352ZM129.427 17.312H129.595C130.635 17.312 131.451 17.056 132.043 16.544C132.651 16.016 132.955 15.232 132.955 14.192C132.955 13.12 132.659 12.328 132.067 11.816C131.475 11.304 130.651 11.048 129.595 11.048H129.427V17.312ZM125.035 17.312H125.203V11.048L125.035 11.048C123.979 11.048 123.155 11.304 122.563 11.816C121.971 12.328 121.675 13.12 121.675 14.192C121.675 15.232 121.971 16.016 122.563 16.544C123.171 17.056 123.995 17.312 125.035 17.312ZM141.758 8.024C143.262 6.376 145.366 5.552 148.07 5.552C150.774 5.552 152.878 6.376 154.382 8.024C155.886 9.672 156.638 11.808 156.638 14.432C156.638 17.056 155.886 19.192 154.382 20.84C152.878 22.488 150.774 23.312 148.07 23.312C145.366 23.312 143.262 22.488 141.758 20.84C140.254 19.192 139.502 17.056 139.502 14.432C139.502 11.808 140.254 9.672 141.758 8.024ZM145.094 18.032C145.782 18.928 146.774 19.376 148.07 19.376C149.366 19.376 150.358 18.928 151.046 18.032C151.734 17.12 152.078 15.92 152.078 14.432C152.078 12.944 151.734 11.752 151.046 10.856C150.358 9.944 149.366 9.488 148.07 9.488C146.774 9.488 145.782 9.936 145.094 10.832C144.406 11.728 144.062 12.928 144.062 14.432C144.062 15.92 144.406 17.12 145.094 18.032ZM169.596 23L166.5 16.376L165.828 16.376L162.66 23L157.932 23L162.396 14.024L158.532 5.864L162.972 5.864L165.852 11.816H166.524L169.476 5.864L173.892 5.864L169.932 13.952L174.396 23L169.596 23ZM176.668 5.864L180.748 5.864L180.748 16.688H181.42L186.484 5.864L192.22 5.864L192.22 23L188.14 23L188.14 12.176H187.468L182.404 23L176.668 23L176.668 5.864ZM209.135 5.864L209.135 9.8L203.999 9.8L203.999 23L199.535 23L199.535 9.8L194.423 9.8V5.864L209.135 5.864Z" fill="#565656"/>
</svg>
