<svg width="42" height="50" viewBox="0 0 42 50" fill="none" xmlns="http://www.w3.org/2000/svg">
<path d="M0 8.31305V2.49735C0.00244108 1.83576 0.26898 1.20195 0.7415 0.734128C1.21402 0.266306 1.85419 0.00241681 2.52243 0L39.4776 0C40.1458 0.00241681 40.786 0.266306 41.2585 0.734128C41.731 1.20195 41.9976 1.83576 42 2.49735V8.31305H33.6035V16.9701H25.2069V8.31305H16.7931V33.2522H25.1896V24.9391H33.5861V33.2522H41.9826V39.0862C41.9802 39.7478 41.7136 40.3816 41.2411 40.8494C40.7686 41.3173 40.1284 41.5812 39.4602 41.5836H25.5359C25.3117 41.5846 25.0972 41.6737 24.9394 41.8312L17.5053 49.1903C17.4237 49.2637 17.3174 49.3044 17.2071 49.3044C17.0968 49.3044 16.9905 49.2637 16.9089 49.1903C16.8352 49.113 16.7939 49.011 16.7931 48.9048V42.0021C16.7921 41.8911 16.7472 41.7849 16.6679 41.7063C16.5886 41.6278 16.4813 41.5833 16.3692 41.5824H2.5039C1.83954 41.5731 1.20531 41.3065 0.737225 40.8396C0.26914 40.3728 0.00447846 39.7429 0 39.0851L0 33.2705H8.39653V8.31305H0Z" fill="#FED036"/>
</svg>
